<?xml version="1.0" encoding="utf-8"?>
<!-- Generator: Adobe Illustrator 23.0.4, SVG Export Plug-In . SVG Version: 6.00 Build 0)  -->
<svg version="1.1" id="Layer_1" xmlns="http://www.w3.org/2000/svg" xmlns:xlink="http://www.w3.org/1999/xlink" x="0px" y="0px"
	 viewBox="0 0 50.5 100.7" style="enable-background:new 0 0 50.5 100.7;" xml:space="preserve">
<style type="text/css">
	.st0{fill:#6BFFFB;}
</style>
<g>
	<polygon class="st0" points="33.2,94.4 37.1,94.4 40.9,94.4 44.8,94.4 44.8,90.5 40.9,90.5 37.1,90.5 33.2,90.5 29.4,90.5 
		29.4,94.4 	"/>
	<polygon class="st0" points="14,90.5 10.2,90.5 6.3,90.5 6.3,94.4 10.2,94.4 14,94.4 17.9,94.4 21.7,94.4 21.7,90.5 17.9,90.5 	"/>
	<polygon class="st0" points="29.4,82.9 29.4,79 29.4,75.2 29.4,71.3 29.4,67.5 29.4,63.6 29.4,59.8 29.4,55.9 29.4,52.1 29.4,48.2 
		29.4,44.4 29.4,40.5 29.4,36.7 29.4,32.9 29.4,29 29.4,25.2 29.4,21.3 29.4,17.5 29.4,13.6 29.4,9.8 25.5,9.8 21.7,9.8 21.7,13.6 
		21.7,17.5 21.7,21.3 21.7,25.2 21.7,29 21.7,32.9 21.7,36.7 21.7,40.5 21.7,44.4 21.7,48.2 21.7,52.1 21.7,55.9 21.7,59.8 
		21.7,63.6 21.7,67.5 21.7,71.3 21.7,75.2 21.7,79 21.7,82.9 21.7,86.7 21.7,90.5 25.5,90.5 29.4,90.5 29.4,86.7 	"/>
	<polygon class="st0" points="17.9,6 14,6 10.2,6 6.3,6 6.3,9.8 10.2,9.8 14,9.8 17.9,9.8 21.7,9.8 21.7,6 	"/>
	<polygon class="st0" points="37.1,9.8 40.9,9.8 44.8,9.8 44.8,6 40.9,6 37.1,6 33.2,6 29.4,6 29.4,9.8 33.2,9.8 	"/>
</g>
</svg>
